<?xml version="1.0" standalone="no"?>
<!DOCTYPE svg PUBLIC "-//W3C//DTD SVG 20010904//EN"
 "http://www.w3.org/TR/2001/REC-SVG-20010904/DTD/svg10.dtd">
<svg version="1.0" xmlns="http://www.w3.org/2000/svg"
 width="1536.000000pt" height="1024.000000pt" viewBox="0 0 1536.000000 1024.000000"
 preserveAspectRatio="xMidYMid meet">

<g transform="translate(0.000000,1024.000000) scale(0.100000,-0.100000)"
fill="#000000" stroke="none">
<path d="M2965 6109 c-143 -50 -247 -158 -289 -302 -14 -48 -16 -132 -16 -641
0 -568 1 -589 21 -648 25 -74 85 -164 140 -207 22 -18 70 -47 107 -64 l67 -32
610 0 610 0 68 32 c125 59 226 182 261 318 24 89 24 1091 0 1192 -21 91 -65
171 -128 233 -69 67 -112 95 -184 119 -59 20 -82 21 -634 21 -551 -1 -575 -1
-633 -21z m772 -573 c128 -34 244 -118 312 -225 59 -93 91 -242 57 -270 -9 -8
-46 -11 -101 -9 l-87 3 -27 73 c-32 90 -76 144 -144 179 -44 23 -65 27 -137
27 -76 1 -91 -3 -139 -29 -65 -36 -111 -95 -136 -174 -9 -31 -22 -62 -27 -68
-7 -9 -40 -13 -99 -13 -87 0 -89 0 -95 26 -4 14 -4 56 -1 92 13 171 165 334
358 386 69 19 199 20 266 2z"/>
<path d="M8895 5663 c-49 -7 -55 -19 -55 -99 0 -88 6 -94 108 -94 48 0 73 -4
81 -14 9 -10 12 -110 10 -361 -1 -249 2 -350 11 -359 16 -16 143 -14 163 3 15
12 17 50 17 360 0 257 3 350 12 359 8 8 52 12 133 12 113 0 123 2 143 23 40
42 45 74 19 121 -20 36 -28 42 -67 48 -49 7 -526 8 -575 1z"/>
<path d="M10387 5650 c-87 -22 -172 -81 -217 -150 -55 -86 -74 -161 -74 -300
-1 -194 36 -303 131 -390 74 -67 156 -95 283 -95 119 0 193 22 256 78 54 48
84 103 84 156 0 46 -9 51 -86 51 -39 0 -58 -5 -69 -17 -50 -61 -76 -82 -111
-92 -88 -25 -162 -6 -221 55 -52 54 -73 119 -73 228 0 156 41 249 124 287 85
39 210 11 245 -54 38 -70 44 -72 154 -51 42 8 51 36 32 93 -24 72 -74 125
-162 168 -68 34 -84 37 -167 40 -50 1 -108 -2 -129 -7z"/>
<path d="M12226 5644 c-14 -14 -16 -69 -16 -453 0 -382 2 -440 15 -451 21 -17
104 -24 137 -11 l27 10 3 231 3 232 33 29 c22 20 43 29 66 29 90 0 96 -18 96
-288 0 -255 -3 -247 95 -247 99 0 94 -14 92 284 l-2 258 -30 48 c-56 91 -178
123 -284 74 -25 -11 -51 -17 -58 -15 -10 4 -13 37 -13 135 0 119 -2 131 -19
141 -31 16 -127 13 -145 -6z"/>
<path d="M5275 5637 c-110 -37 -182 -101 -205 -183 -16 -55 -8 -159 14 -202
35 -68 100 -109 265 -169 136 -49 170 -73 171 -123 1 -108 -191 -119 -307 -18
-44 38 -50 40 -96 35 -62 -5 -82 -24 -73 -69 23 -123 148 -192 351 -193 163 0
246 37 298 132 54 101 45 219 -24 297 -47 53 -118 90 -263 136 -132 43 -163
74 -137 143 14 36 60 50 146 45 59 -4 83 -11 114 -31 45 -30 62 -32 126 -16
52 13 62 33 42 81 -20 45 -72 92 -132 119 -62 28 -226 37 -290 16z"/>
<path d="M6220 5397 l-25 -13 -6 -234 c-3 -129 -6 -236 -7 -238 -1 -1 -17 -11
-34 -22 -47 -28 -103 -26 -133 5 -25 24 -25 24 -25 239 0 118 -4 226 -10 240
-9 24 -14 26 -78 26 -110 0 -104 15 -100 -275 3 -237 4 -252 26 -296 25 -52
78 -94 137 -110 62 -17 157 4 206 47 14 12 17 11 27 -10 17 -38 128 -47 170
-14 9 8 12 84 12 317 0 231 -3 311 -12 323 -18 21 -115 31 -148 15z"/>
<path d="M6530 5403 c-51 -10 -50 -5 -50 -332 0 -242 3 -311 14 -326 19 -26
117 -33 151 -11 l25 16 0 201 c0 164 3 204 16 224 17 25 61 45 103 45 15 0 37
7 49 16 19 13 22 24 22 85 0 64 -2 70 -24 80 -38 18 -95 2 -134 -37 -19 -19
-35 -34 -37 -34 -1 0 -5 13 -8 29 -8 41 -55 57 -127 44z"/>
<path d="M6929 5400 c-45 -11 -45 -30 6 -176 27 -76 74 -213 105 -304 69 -200
73 -203 192 -197 91 4 110 17 132 86 8 25 25 75 39 111 114 297 157 417 157
436 0 34 -25 47 -87 45 -58 -1 -103 -21 -103 -45 0 -8 -18 -68 -41 -133 -22
-65 -53 -162 -68 -216 -15 -54 -31 -98 -36 -98 -6 0 -20 39 -33 88 -46 179
-105 368 -119 385 -15 17 -102 28 -144 18z"/>
<path d="M7779 5394 c-62 -19 -131 -81 -160 -146 -22 -48 -24 -67 -24 -188 0
-130 2 -137 30 -195 34 -68 91 -117 158 -137 23 -7 85 -12 137 -12 111 1 164
21 230 86 42 42 54 90 28 116 -25 25 -97 14 -159 -24 -54 -34 -63 -36 -118
-32 -68 5 -94 22 -117 77 -31 73 -36 71 170 71 102 0 196 4 210 10 33 12 41
57 26 140 -31 169 -127 251 -293 249 -40 0 -93 -7 -118 -15z m193 -151 c34
-37 51 -71 44 -89 -4 -11 -30 -14 -116 -14 -123 0 -133 5 -109 61 28 69 133
93 181 42z"/>
<path d="M9577 5396 c-141 -51 -208 -183 -194 -382 7 -101 32 -163 89 -221 57
-58 117 -78 238 -77 84 0 101 3 147 27 96 50 144 141 151 287 8 179 -40 287
-157 348 -57 29 -71 32 -149 32 -48 -1 -104 -7 -125 -14z m192 -162 c38 -32
53 -85 53 -186 0 -122 -39 -179 -121 -182 -87 -2 -122 46 -129 174 -7 150 32
220 123 220 32 0 51 -7 74 -26z"/>
<path d="M11051 5393 c-58 -21 -118 -82 -127 -128 -9 -51 9 -66 87 -72 63 -5
64 -4 80 25 11 19 31 34 54 42 78 26 145 -16 145 -90 l0 -37 -117 1 c-112 1
-120 0 -166 -27 -30 -18 -60 -47 -78 -75 -25 -39 -29 -56 -29 -115 0 -121 49
-178 172 -199 54 -10 72 -9 120 7 32 9 70 30 85 45 l28 28 37 -34 c36 -32 43
-34 107 -34 76 0 81 4 81 68 0 43 -7 55 -37 71 -23 11 -23 15 -23 192 0 196
-5 222 -56 273 -56 55 -99 70 -214 73 -77 2 -117 -2 -149 -14z m237 -434 c3
-61 -26 -90 -98 -97 -69 -6 -100 14 -100 67 0 62 32 81 130 78 l65 -2 3 -46z"/>
<path d="M11740 5403 c-104 -35 -160 -101 -160 -189 0 -61 12 -99 43 -132 31
-33 65 -49 174 -82 105 -32 133 -50 133 -90 0 -39 -18 -50 -79 -50 -60 0 -99
19 -128 60 -14 20 -22 22 -71 18 -94 -8 -114 -59 -55 -137 37 -49 112 -79 213
-87 94 -7 194 11 240 44 37 27 70 98 70 152 0 123 -37 161 -206 215 -156 49
-180 71 -136 125 14 18 30 23 66 24 42 1 50 -3 87 -41 36 -38 46 -43 84 -43
52 0 90 13 98 33 10 26 -12 85 -44 116 -42 42 -140 71 -238 70 -42 0 -83 -3
-91 -6z"/>
<path d="M8226 5384 c-9 -8 -16 -19 -16 -24 0 -5 34 -96 76 -202 116 -296 164
-424 164 -437 0 -27 -31 -69 -59 -81 -25 -10 -38 -9 -76 3 -44 16 -46 15 -61
-8 -24 -37 -15 -104 19 -129 39 -29 147 -27 211 3 81 40 110 88 193 321 57
161 125 347 157 433 44 116 35 137 -59 137 -47 0 -66 -4 -77 -17 -8 -10 -39
-85 -68 -168 -29 -82 -59 -163 -65 -180 -7 -16 -16 -39 -20 -50 l-7 -20 -8 20
c-5 11 -34 101 -66 200 -31 99 -64 188 -72 198 -21 23 -143 25 -166 1z"/>
</g>
</svg>
